<mxfile host="app.diagrams.net" modified="2023-09-13T19:51:25.999Z" agent="Mozilla/5.0 (Windows NT 10.0; Win64; x64) AppleWebKit/537.36 (KHTML, like Gecko) Chrome/117.0.0.0 Safari/537.36" version="21.7.5" etag="97zDJJ2rvyp8ToLTxSqs" type="github">
  <diagram name="페이지-1" id="3AmVmls4legNgqc6rnJA">
    <mxGraphModel>
      <root>
        <mxCell id="0" />
        <mxCell id="1" parent="0" />
      </root>
    </mxGraphModel>
  </diagram>
</mxfile>
